<?xml version="1.0" encoding="utf-8"?>
<!-- Generator: Adobe Illustrator 25.1.0, SVG Export Plug-In . SVG Version: 6.00 Build 0)  -->
<svg version="1.1" id="Calque_1" xmlns="http://www.w3.org/2000/svg" xmlns:xlink="http://www.w3.org/1999/xlink" x="0px" y="0px"
	 viewBox="0 0 50 50" style="enable-background:new 0 0 50 50;" xml:space="preserve">
<style type="text/css">
	.st0{fill:#FFFFFF;}
</style>
<g>
	<path class="st0" d="M30.61,41.26c-1.55-0.86-2.52-0.88-2.98-0.06c-0.35,0.63-0.05,1.82,0.62,2.08c1.34,0.51,1.51-0.69,1.95-1.47
		c0.68,0.85,0.3,2.25-0.6,3.68c-0.98,1.55-5.46,2.1-7.2,1.25c-1.97-0.97-3.13-3.25-2.6-5.77c0.27,0.6,0.37,1.03,0.63,1.32
		c0.34,0.38,0.91,0.99,1.19,0.9c0.51-0.16,1.09-0.69,1.26-1.2c0.22-0.67-0.26-1.22-1.01-1.37c-0.63-0.12-1.29-0.35-1.89-0.25
		c-0.96,0.16-1.29-0.33-1.72-1.01c-0.96-1.54-1.97-3.04-3.03-4.5c-1.36-1.87-1.61-5.58-0.29-7.31c2.02,2,4.38,3.3,7.38,3.05
		c-0.6-1.35-1.69-2.17-3.08-2.69c-1.06-0.39-2.11-0.8-3.13-1.28c-1.36-0.64-2.3-1.69-2.24-3.25c0.07-1.79,0.23-3.6,0.56-5.36
		c0.25-1.33,1.19-2.25,2.54-2.66c5.01-1.52,10.05-2.07,15.1-0.21c3.74,1.37,4.73,5.39,4.27,8.48c-0.28,1.91-1.83,2.53-3.35,3.17
		c-1.07,0.45-2.19,0.84-3.2,1.41c-0.92,0.52-1.63,1.3-1.68,2.55c2.67-0.41,4.99-1.37,6.88-3.34c1.15,0.54,1.61,1.61,1.43,2.67
		c-0.29,1.72-0.71,3.48-1.45,5.05c-0.69,1.47-1.86,2.72-2.83,4.06C31.65,39.89,31.12,40.57,30.61,41.26z"/>
	<path class="st0" d="M14.54,15.63c-0.98,2.45-2.39,4.62-2,7.35c-3.09-0.04-6.05-0.52-8.75-2c-3.58-1.96-4.64-5.34-3.11-9.66
		C1.64,8.59,3.4,6.53,5.96,5.23c1.74-0.88,3.57-1.58,5.36-2.36c0.05,0.08,0.11,0.16,0.16,0.23c-0.47,0.43-0.97,0.82-1.4,1.29
		C9.03,5.53,7.92,6.62,6.99,7.85c-1.43,1.9-1.23,3.89,0.42,5.62c1.45,1.52,3.34,1.99,5.33,2.15C13.3,15.67,13.85,15.63,14.54,15.63z
		"/>
	<path class="st0" d="M37.95,22.9c0.42-2.71-0.92-4.89-1.79-7.2c1.2-0.18,2.37-0.25,3.48-0.55c0.89-0.24,1.79-0.64,2.54-1.17
		c2.22-1.6,2.69-4.15,1.07-6.33c-1.28-1.72-2.8-3.25-4.06-4.69c6.42,1.82,10.07,4.94,10.75,11.08c0.3,2.67-0.64,4.83-2.86,6.35
		C44.34,22.27,41.19,22.71,37.95,22.9z"/>
</g>
</svg>
